%TF.GenerationSoftware,KiCad,Pcbnew,(7.0.0)*%
%TF.CreationDate,2023-05-27T01:43:55+02:00*%
%TF.ProjectId,workbench,776f726b-6265-46e6-9368-2e6b69636164,rev?*%
%TF.SameCoordinates,Original*%
%TF.FileFunction,Soldermask,Bot*%
%TF.FilePolarity,Negative*%
%FSLAX46Y46*%
G04 Gerber Fmt 4.6, Leading zero omitted, Abs format (unit mm)*
G04 Created by KiCad (PCBNEW (7.0.0)) date 2023-05-27 01:43:55*
%MOMM*%
%LPD*%
G01*
G04 APERTURE LIST*
G04 Aperture macros list*
%AMRoundRect*
0 Rectangle with rounded corners*
0 $1 Rounding radius*
0 $2 $3 $4 $5 $6 $7 $8 $9 X,Y pos of 4 corners*
0 Add a 4 corners polygon primitive as box body*
4,1,4,$2,$3,$4,$5,$6,$7,$8,$9,$2,$3,0*
0 Add four circle primitives for the rounded corners*
1,1,$1+$1,$2,$3*
1,1,$1+$1,$4,$5*
1,1,$1+$1,$6,$7*
1,1,$1+$1,$8,$9*
0 Add four rect primitives between the rounded corners*
20,1,$1+$1,$2,$3,$4,$5,0*
20,1,$1+$1,$4,$5,$6,$7,0*
20,1,$1+$1,$6,$7,$8,$9,0*
20,1,$1+$1,$8,$9,$2,$3,0*%
G04 Aperture macros list end*
%ADD10R,1.700000X1.700000*%
%ADD11O,1.700000X1.700000*%
%ADD12C,8.600000*%
%ADD13C,0.900000*%
%ADD14RoundRect,0.250000X1.100000X-0.412500X1.100000X0.412500X-1.100000X0.412500X-1.100000X-0.412500X0*%
%ADD15RoundRect,0.250000X-0.412500X-1.100000X0.412500X-1.100000X0.412500X1.100000X-0.412500X1.100000X0*%
%ADD16R,1.600000X1.600000*%
%ADD17C,1.600000*%
%ADD18O,1.600000X1.600000*%
%ADD19R,2.400000X1.600000*%
%ADD20O,2.400000X1.600000*%
%ADD21R,2.600000X2.600000*%
%ADD22C,2.600000*%
%ADD23O,2.000000X1.200000*%
%ADD24R,2.000000X1.200000*%
%ADD25O,2.000000X1.905000*%
%ADD26R,2.000000X1.905000*%
G04 APERTURE END LIST*
D10*
%TO.C,J6*%
X121411999Y-81152999D03*
D11*
X121411999Y-78612999D03*
X121411999Y-76072999D03*
%TD*%
D10*
%TO.C,J8*%
X156209999Y-82168999D03*
D11*
X156209999Y-84708999D03*
X156209999Y-87248999D03*
X156209999Y-89788999D03*
X156209999Y-92328999D03*
X156209999Y-94868999D03*
%TD*%
D12*
%TO.C,H4*%
X175006000Y-51308000D03*
D13*
X175006000Y-54533000D03*
X172725581Y-53588419D03*
X177286419Y-49027581D03*
X177286419Y-53588419D03*
X171781000Y-51308000D03*
X172725581Y-49027581D03*
X175006000Y-48083000D03*
X178231000Y-51308000D03*
%TD*%
D12*
%TO.C,H3*%
X118568000Y-62357000D03*
D13*
X118568000Y-65582000D03*
X116287581Y-64637419D03*
X120848419Y-60076581D03*
X120848419Y-64637419D03*
X115343000Y-62357000D03*
X116287581Y-60076581D03*
X118568000Y-59132000D03*
X121793000Y-62357000D03*
%TD*%
D12*
%TO.C,H2*%
X100788000Y-121539000D03*
D13*
X100788000Y-124764000D03*
X98507581Y-123819419D03*
X103068419Y-119258581D03*
X103068419Y-123819419D03*
X97563000Y-121539000D03*
X98507581Y-119258581D03*
X100788000Y-118314000D03*
X104013000Y-121539000D03*
%TD*%
D12*
%TO.C,H1*%
X150119600Y-116718600D03*
D13*
X150119600Y-119943600D03*
X147839181Y-118999019D03*
X152400019Y-114438181D03*
X152400019Y-118999019D03*
X146894600Y-116718600D03*
X147839181Y-114438181D03*
X150119600Y-113493600D03*
X153344600Y-116718600D03*
%TD*%
D14*
%TO.C,C18*%
X110490000Y-135078000D03*
X110490000Y-131953000D03*
%TD*%
%TO.C,C13*%
X113792000Y-135078000D03*
X113792000Y-131953000D03*
%TD*%
%TO.C,C12*%
X117094000Y-131953000D03*
X117094000Y-135078000D03*
%TD*%
%TO.C,C11*%
X120396000Y-135078000D03*
X120396000Y-131953000D03*
%TD*%
%TO.C,C10*%
X103886000Y-135078000D03*
X103886000Y-131953000D03*
%TD*%
%TO.C,C9*%
X107188000Y-135078000D03*
X107188000Y-131953000D03*
%TD*%
D15*
%TO.C,C8*%
X174332500Y-81788000D03*
X177457500Y-81788000D03*
%TD*%
%TO.C,C7*%
X174371000Y-105410000D03*
X177496000Y-105410000D03*
%TD*%
%TO.C,C6*%
X174371000Y-129413000D03*
X177496000Y-129413000D03*
%TD*%
D16*
%TO.C,C3*%
X100710999Y-131103399D03*
D17*
X100711000Y-128603400D03*
%TD*%
D10*
%TO.C,J5*%
X126745999Y-109219999D03*
D11*
X126745999Y-106679999D03*
X126745999Y-104139999D03*
%TD*%
D17*
%TO.C,C2*%
X123190000Y-95758000D03*
X123190000Y-100758000D03*
%TD*%
%TO.C,C1*%
X118110000Y-47197000D03*
X118110000Y-52197000D03*
%TD*%
%TO.C,R53*%
X165989000Y-54737000D03*
D18*
X158368999Y-54736999D03*
%TD*%
D17*
%TO.C,R1*%
X115824000Y-108458000D03*
D18*
X108203999Y-108457999D03*
%TD*%
D17*
%TO.C,R52*%
X158369000Y-51689000D03*
D18*
X165988999Y-51688999D03*
%TD*%
D17*
%TO.C,R19*%
X114681000Y-69469000D03*
D18*
X122300999Y-69468999D03*
%TD*%
D19*
%TO.C,U10*%
X172158999Y-109219999D03*
D20*
X172158999Y-111759999D03*
X172158999Y-114299999D03*
X172158999Y-116839999D03*
X172158999Y-119379999D03*
X172158999Y-121919999D03*
X172158999Y-124459999D03*
X172158999Y-126999999D03*
X172158999Y-129539999D03*
X179778999Y-129539999D03*
X179778999Y-126999999D03*
X179778999Y-124459999D03*
X179778999Y-121919999D03*
X179778999Y-119379999D03*
X179778999Y-116839999D03*
X179778999Y-114299999D03*
X179778999Y-111759999D03*
X179778999Y-109219999D03*
%TD*%
D17*
%TO.C,R2*%
X115824000Y-111506000D03*
D18*
X108203999Y-111505999D03*
%TD*%
D17*
%TO.C,R20*%
X114681000Y-72644000D03*
D18*
X122300999Y-72643999D03*
%TD*%
D19*
%TO.C,U4*%
X169036999Y-124459999D03*
D20*
X169036999Y-121919999D03*
X169036999Y-119379999D03*
X169036999Y-116839999D03*
X169036999Y-114299999D03*
X169036999Y-111759999D03*
X169036999Y-109219999D03*
X169036999Y-106679999D03*
X161416999Y-106679999D03*
X161416999Y-109219999D03*
X161416999Y-111759999D03*
X161416999Y-114299999D03*
X161416999Y-116839999D03*
X161416999Y-119379999D03*
X161416999Y-121919999D03*
X161416999Y-124459999D03*
%TD*%
D16*
%TO.C,C16*%
X157606999Y-124332999D03*
D17*
X155107000Y-124333000D03*
%TD*%
D19*
%TO.C,U2*%
X168909999Y-76707999D03*
D20*
X168909999Y-74167999D03*
X168909999Y-71627999D03*
X168909999Y-69087999D03*
X168909999Y-66547999D03*
X168909999Y-64007999D03*
X168909999Y-61467999D03*
X168909999Y-58927999D03*
X161289999Y-58927999D03*
X161289999Y-61467999D03*
X161289999Y-64007999D03*
X161289999Y-66547999D03*
X161289999Y-69087999D03*
X161289999Y-71627999D03*
X161289999Y-74167999D03*
X161289999Y-76707999D03*
%TD*%
D16*
%TO.C,U6*%
X137921999Y-129539999D03*
D18*
X137921999Y-126999999D03*
X137921999Y-124459999D03*
X137921999Y-121919999D03*
X137921999Y-119379999D03*
X137921999Y-116839999D03*
X137921999Y-114299999D03*
X137921999Y-111759999D03*
X137921999Y-109219999D03*
X137921999Y-106679999D03*
X137921999Y-104139999D03*
X137921999Y-101599999D03*
X137921999Y-99059999D03*
X137921999Y-96519999D03*
X130301999Y-96519999D03*
X130301999Y-99059999D03*
X130301999Y-101599999D03*
X130301999Y-104139999D03*
X130301999Y-106679999D03*
X130301999Y-109219999D03*
X130301999Y-111759999D03*
X130301999Y-114299999D03*
X130301999Y-116839999D03*
X130301999Y-119379999D03*
X130301999Y-121919999D03*
X130301999Y-124459999D03*
X130301999Y-126999999D03*
X130301999Y-129539999D03*
%TD*%
D21*
%TO.C,J2*%
X187705999Y-90931999D03*
D22*
X187706000Y-96012000D03*
X187706000Y-101092000D03*
X187706000Y-106172000D03*
X187706000Y-111252000D03*
X187706000Y-116332000D03*
X187706000Y-121412000D03*
X187706000Y-126492000D03*
%TD*%
%TO.C,J3*%
X100457000Y-113919000D03*
X100457000Y-108839000D03*
X100457000Y-103759000D03*
X100457000Y-98679000D03*
X100457000Y-93599000D03*
X100457000Y-88519000D03*
X100457000Y-83439000D03*
D21*
X100456999Y-78358999D03*
%TD*%
D16*
%TO.C,C17*%
X157479999Y-76707999D03*
D17*
X154980000Y-76708000D03*
%TD*%
D23*
%TO.C,U11*%
X150494999Y-46989999D03*
X150494999Y-49529999D03*
X150494999Y-52069999D03*
X150494999Y-54609999D03*
X150494999Y-57149999D03*
X150494999Y-59689999D03*
X150494999Y-62229999D03*
X150494999Y-64769999D03*
X150494999Y-67309999D03*
X150494999Y-69849999D03*
X150494999Y-72389999D03*
X150494999Y-74929999D03*
X150494999Y-77469999D03*
X150494999Y-80009999D03*
X150494999Y-82549999D03*
X150494999Y-85089999D03*
X150494999Y-87629999D03*
X150491319Y-90167279D03*
X150491319Y-92707279D03*
X125094999Y-92709999D03*
X125094999Y-90169999D03*
X125094999Y-87629999D03*
X125094999Y-85089999D03*
X125094999Y-82549999D03*
X125094999Y-80009999D03*
X125094999Y-77469999D03*
X125094999Y-74929999D03*
X125094999Y-72389999D03*
X125094999Y-69849999D03*
X125094999Y-67309999D03*
X125094999Y-64769999D03*
X125094999Y-62229999D03*
X125094999Y-59689999D03*
X125094999Y-57149999D03*
X125094999Y-54609999D03*
X125094999Y-52069999D03*
X125094999Y-49529999D03*
D24*
X125094999Y-46989999D03*
%TD*%
D17*
%TO.C,R6*%
X115824000Y-123698000D03*
D18*
X108203999Y-123697999D03*
%TD*%
D21*
%TO.C,J4*%
X187705999Y-49148999D03*
D22*
X187706000Y-54229000D03*
X187706000Y-59309000D03*
X187706000Y-64389000D03*
X187706000Y-69469000D03*
X187706000Y-74549000D03*
X187706000Y-79629000D03*
X187706000Y-84709000D03*
%TD*%
D18*
%TO.C,R9*%
X108203999Y-104774999D03*
D17*
X115824000Y-104775000D03*
%TD*%
%TO.C,R13*%
X115824000Y-92583000D03*
D18*
X108203999Y-92582999D03*
%TD*%
D17*
%TO.C,R3*%
X115824000Y-114554000D03*
D18*
X108203999Y-114553999D03*
%TD*%
D17*
%TO.C,R22*%
X101854000Y-66675000D03*
D18*
X101853999Y-59054999D03*
%TD*%
D16*
%TO.C,C14*%
X145795999Y-109179999D03*
D17*
X145796000Y-106680000D03*
%TD*%
%TO.C,R12*%
X115824000Y-95631000D03*
D18*
X108203999Y-95630999D03*
%TD*%
D19*
%TO.C,U7*%
X169036999Y-100393999D03*
D20*
X169036999Y-97853999D03*
X169036999Y-95313999D03*
X169036999Y-92773999D03*
X169036999Y-90233999D03*
X169036999Y-87693999D03*
X169036999Y-85153999D03*
X169036999Y-82613999D03*
X161416999Y-82613999D03*
X161416999Y-85153999D03*
X161416999Y-87693999D03*
X161416999Y-90233999D03*
X161416999Y-92773999D03*
X161416999Y-95313999D03*
X161416999Y-97853999D03*
X161416999Y-100393999D03*
%TD*%
D17*
%TO.C,R7*%
X115824000Y-126746000D03*
D18*
X108203999Y-126745999D03*
%TD*%
D25*
%TO.C,Q3*%
X155701999Y-49148999D03*
X155701999Y-51688999D03*
D26*
X155701999Y-54228999D03*
%TD*%
D22*
%TO.C,J9*%
X190627000Y-139065000D03*
X185547000Y-139065000D03*
X180467000Y-139065000D03*
X175387000Y-139065000D03*
X170307000Y-139065000D03*
X165227000Y-139065000D03*
X160147000Y-139065000D03*
D21*
X155066999Y-139064999D03*
%TD*%
D19*
%TO.C,U3*%
X172084999Y-61467999D03*
D20*
X172084999Y-64007999D03*
X172084999Y-66547999D03*
X172084999Y-69087999D03*
X172084999Y-71627999D03*
X172084999Y-74167999D03*
X172084999Y-76707999D03*
X172084999Y-79247999D03*
X172084999Y-81787999D03*
X179704999Y-81787999D03*
X179704999Y-79247999D03*
X179704999Y-76707999D03*
X179704999Y-74167999D03*
X179704999Y-71627999D03*
X179704999Y-69087999D03*
X179704999Y-66547999D03*
X179704999Y-64007999D03*
X179704999Y-61467999D03*
%TD*%
D17*
%TO.C,R16*%
X115824000Y-83439000D03*
D18*
X108203999Y-83438999D03*
%TD*%
D17*
%TO.C,R11*%
X115824000Y-98679000D03*
D18*
X108203999Y-98678999D03*
%TD*%
D21*
%TO.C,J11*%
X109727999Y-138937999D03*
D22*
X114808000Y-138938000D03*
X119888000Y-138938000D03*
X124968000Y-138938000D03*
X130048000Y-138938000D03*
X135128000Y-138938000D03*
X140208000Y-138938000D03*
X145288000Y-138938000D03*
%TD*%
D17*
%TO.C,R35*%
X98806000Y-66675000D03*
D18*
X98805999Y-59054999D03*
%TD*%
D17*
%TO.C,R4*%
X115824000Y-117602000D03*
D18*
X108203999Y-117601999D03*
%TD*%
D17*
%TO.C,R21*%
X104902000Y-66675000D03*
D18*
X104901999Y-59054999D03*
%TD*%
D19*
%TO.C,U9*%
X172211999Y-85216999D03*
D20*
X172211999Y-87756999D03*
X172211999Y-90296999D03*
X172211999Y-92836999D03*
X172211999Y-95376999D03*
X172211999Y-97916999D03*
X172211999Y-100456999D03*
X172211999Y-102996999D03*
X172211999Y-105536999D03*
X179831999Y-105536999D03*
X179831999Y-102996999D03*
X179831999Y-100456999D03*
X179831999Y-97916999D03*
X179831999Y-95376999D03*
X179831999Y-92836999D03*
X179831999Y-90296999D03*
X179831999Y-87756999D03*
X179831999Y-85216999D03*
%TD*%
D17*
%TO.C,R10*%
X115824000Y-101727000D03*
D18*
X108203999Y-101726999D03*
%TD*%
%TO.C,R5*%
X108203999Y-120649999D03*
D17*
X115824000Y-120650000D03*
%TD*%
D21*
%TO.C,J10*%
X97408999Y-51688999D03*
D22*
X102489000Y-51689000D03*
X107569000Y-51689000D03*
X112649000Y-51689000D03*
%TD*%
D17*
%TO.C,R15*%
X115824000Y-86487000D03*
D18*
X108203999Y-86486999D03*
%TD*%
D17*
%TO.C,R14*%
X115824000Y-89535000D03*
D18*
X108203999Y-89534999D03*
%TD*%
D21*
%TO.C,J1*%
X100837999Y-141604999D03*
D22*
X100838000Y-136525000D03*
%TD*%
D16*
%TO.C,RN1*%
X119125999Y-105790999D03*
D18*
X119125999Y-103250999D03*
X119125999Y-100710999D03*
X119125999Y-98170999D03*
X119125999Y-95630999D03*
X119125999Y-93090999D03*
X119125999Y-90550999D03*
X119125999Y-88010999D03*
X119125999Y-85470999D03*
%TD*%
D16*
%TO.C,RN2*%
X119125999Y-109219999D03*
D18*
X119125999Y-111759999D03*
X119125999Y-114299999D03*
X119125999Y-116839999D03*
X119125999Y-119379999D03*
X119125999Y-121919999D03*
X119125999Y-124459999D03*
X119125999Y-126999999D03*
X119125999Y-129539999D03*
%TD*%
D17*
%TO.C,R8*%
X115824000Y-129794000D03*
D18*
X108203999Y-129793999D03*
%TD*%
D16*
%TO.C,C15*%
X157352999Y-100329999D03*
D17*
X154853000Y-100330000D03*
%TD*%
M02*
