%TF.GenerationSoftware,KiCad,Pcbnew,(7.0.0)*%
%TF.CreationDate,2023-05-27T01:43:59+02:00*%
%TF.ProjectId,workbench,776f726b-6265-46e6-9368-2e6b69636164,rev?*%
%TF.SameCoordinates,Original*%
%TF.FileFunction,Drillmap*%
%TF.FilePolarity,Positive*%
%FSLAX45Y45*%
G04 Gerber Fmt 4.5, Leading zero omitted, Abs format (unit mm)*
G04 Created by KiCad (PCBNEW (7.0.0)) date 2023-05-27 01:43:59*
%MOMM*%
%LPD*%
G01*
G04 APERTURE LIST*
%ADD10C,0.100000*%
%ADD11C,0.200000*%
G04 APERTURE END LIST*
D10*
X9563100Y-4508500D02*
G75*
G03*
X9436100Y-4635500I0J-127000D01*
G01*
X9436100Y-14351000D02*
G75*
G03*
X9563100Y-14478000I127000J0D01*
G01*
X19304000Y-14478000D02*
G75*
G03*
X19431000Y-14351000I0J127000D01*
G01*
X19431000Y-4635500D02*
G75*
G03*
X19304000Y-4508500I-127000J0D01*
G01*
X9436100Y-4635500D02*
X9436100Y-14351000D01*
X19431000Y-14351000D02*
X19431000Y-4635500D01*
X9563100Y-14478000D02*
X19304000Y-14478000D01*
X19405600Y-4495800D02*
X19405600Y-4495800D01*
X9563100Y-4508500D02*
X19304000Y-4508500D01*
D11*
X9678719Y-14776476D02*
X9678719Y-14576476D01*
X9678719Y-14576476D02*
X9726338Y-14576476D01*
X9726338Y-14576476D02*
X9754910Y-14586000D01*
X9754910Y-14586000D02*
X9773957Y-14605048D01*
X9773957Y-14605048D02*
X9783481Y-14624095D01*
X9783481Y-14624095D02*
X9793005Y-14662190D01*
X9793005Y-14662190D02*
X9793005Y-14690762D01*
X9793005Y-14690762D02*
X9783481Y-14728857D01*
X9783481Y-14728857D02*
X9773957Y-14747905D01*
X9773957Y-14747905D02*
X9754910Y-14766952D01*
X9754910Y-14766952D02*
X9726338Y-14776476D01*
X9726338Y-14776476D02*
X9678719Y-14776476D01*
X9878719Y-14776476D02*
X9878719Y-14643143D01*
X9878719Y-14681238D02*
X9888243Y-14662190D01*
X9888243Y-14662190D02*
X9897767Y-14652667D01*
X9897767Y-14652667D02*
X9916814Y-14643143D01*
X9916814Y-14643143D02*
X9935862Y-14643143D01*
X10002529Y-14776476D02*
X10002529Y-14643143D01*
X10002529Y-14576476D02*
X9993005Y-14586000D01*
X9993005Y-14586000D02*
X10002529Y-14595524D01*
X10002529Y-14595524D02*
X10012052Y-14586000D01*
X10012052Y-14586000D02*
X10002529Y-14576476D01*
X10002529Y-14576476D02*
X10002529Y-14595524D01*
X10126338Y-14776476D02*
X10107290Y-14766952D01*
X10107290Y-14766952D02*
X10097767Y-14747905D01*
X10097767Y-14747905D02*
X10097767Y-14576476D01*
X10231100Y-14776476D02*
X10212052Y-14766952D01*
X10212052Y-14766952D02*
X10202529Y-14747905D01*
X10202529Y-14747905D02*
X10202529Y-14576476D01*
X10427290Y-14776476D02*
X10427290Y-14576476D01*
X10427290Y-14576476D02*
X10493957Y-14719333D01*
X10493957Y-14719333D02*
X10560624Y-14576476D01*
X10560624Y-14576476D02*
X10560624Y-14776476D01*
X10741576Y-14776476D02*
X10741576Y-14671714D01*
X10741576Y-14671714D02*
X10732052Y-14652667D01*
X10732052Y-14652667D02*
X10713005Y-14643143D01*
X10713005Y-14643143D02*
X10674909Y-14643143D01*
X10674909Y-14643143D02*
X10655862Y-14652667D01*
X10741576Y-14766952D02*
X10722529Y-14776476D01*
X10722529Y-14776476D02*
X10674909Y-14776476D01*
X10674909Y-14776476D02*
X10655862Y-14766952D01*
X10655862Y-14766952D02*
X10646338Y-14747905D01*
X10646338Y-14747905D02*
X10646338Y-14728857D01*
X10646338Y-14728857D02*
X10655862Y-14709809D01*
X10655862Y-14709809D02*
X10674909Y-14700286D01*
X10674909Y-14700286D02*
X10722529Y-14700286D01*
X10722529Y-14700286D02*
X10741576Y-14690762D01*
X10836814Y-14643143D02*
X10836814Y-14843143D01*
X10836814Y-14652667D02*
X10855862Y-14643143D01*
X10855862Y-14643143D02*
X10893957Y-14643143D01*
X10893957Y-14643143D02*
X10913005Y-14652667D01*
X10913005Y-14652667D02*
X10922529Y-14662190D01*
X10922529Y-14662190D02*
X10932052Y-14681238D01*
X10932052Y-14681238D02*
X10932052Y-14738381D01*
X10932052Y-14738381D02*
X10922529Y-14757428D01*
X10922529Y-14757428D02*
X10913005Y-14766952D01*
X10913005Y-14766952D02*
X10893957Y-14776476D01*
X10893957Y-14776476D02*
X10855862Y-14776476D01*
X10855862Y-14776476D02*
X10836814Y-14766952D01*
X11017767Y-14757428D02*
X11027290Y-14766952D01*
X11027290Y-14766952D02*
X11017767Y-14776476D01*
X11017767Y-14776476D02*
X11008243Y-14766952D01*
X11008243Y-14766952D02*
X11017767Y-14757428D01*
X11017767Y-14757428D02*
X11017767Y-14776476D01*
X11017767Y-14652667D02*
X11027290Y-14662190D01*
X11027290Y-14662190D02*
X11017767Y-14671714D01*
X11017767Y-14671714D02*
X11008243Y-14662190D01*
X11008243Y-14662190D02*
X11017767Y-14652667D01*
X11017767Y-14652667D02*
X11017767Y-14671714D01*
M02*
