%TF.GenerationSoftware,KiCad,Pcbnew,(7.0.0)*%
%TF.CreationDate,2023-05-27T01:43:55+02:00*%
%TF.ProjectId,workbench,776f726b-6265-46e6-9368-2e6b69636164,rev?*%
%TF.SameCoordinates,Original*%
%TF.FileFunction,Legend,Bot*%
%TF.FilePolarity,Positive*%
%FSLAX46Y46*%
G04 Gerber Fmt 4.6, Leading zero omitted, Abs format (unit mm)*
G04 Created by KiCad (PCBNEW (7.0.0)) date 2023-05-27 01:43:55*
%MOMM*%
%LPD*%
G01*
G04 APERTURE LIST*
%ADD10C,0.150000*%
%ADD11C,0.120000*%
G04 APERTURE END LIST*
D10*
%TO.C,C18*%
X110889142Y-128897142D02*
X110936761Y-128849523D01*
X110936761Y-128849523D02*
X110984380Y-128706666D01*
X110984380Y-128706666D02*
X110984380Y-128611428D01*
X110984380Y-128611428D02*
X110936761Y-128468571D01*
X110936761Y-128468571D02*
X110841523Y-128373333D01*
X110841523Y-128373333D02*
X110746285Y-128325714D01*
X110746285Y-128325714D02*
X110555809Y-128278095D01*
X110555809Y-128278095D02*
X110412952Y-128278095D01*
X110412952Y-128278095D02*
X110222476Y-128325714D01*
X110222476Y-128325714D02*
X110127238Y-128373333D01*
X110127238Y-128373333D02*
X110032000Y-128468571D01*
X110032000Y-128468571D02*
X109984380Y-128611428D01*
X109984380Y-128611428D02*
X109984380Y-128706666D01*
X109984380Y-128706666D02*
X110032000Y-128849523D01*
X110032000Y-128849523D02*
X110079619Y-128897142D01*
X110984380Y-129849523D02*
X110984380Y-129278095D01*
X110984380Y-129563809D02*
X109984380Y-129563809D01*
X109984380Y-129563809D02*
X110127238Y-129468571D01*
X110127238Y-129468571D02*
X110222476Y-129373333D01*
X110222476Y-129373333D02*
X110270095Y-129278095D01*
X110412952Y-130420952D02*
X110365333Y-130325714D01*
X110365333Y-130325714D02*
X110317714Y-130278095D01*
X110317714Y-130278095D02*
X110222476Y-130230476D01*
X110222476Y-130230476D02*
X110174857Y-130230476D01*
X110174857Y-130230476D02*
X110079619Y-130278095D01*
X110079619Y-130278095D02*
X110032000Y-130325714D01*
X110032000Y-130325714D02*
X109984380Y-130420952D01*
X109984380Y-130420952D02*
X109984380Y-130611428D01*
X109984380Y-130611428D02*
X110032000Y-130706666D01*
X110032000Y-130706666D02*
X110079619Y-130754285D01*
X110079619Y-130754285D02*
X110174857Y-130801904D01*
X110174857Y-130801904D02*
X110222476Y-130801904D01*
X110222476Y-130801904D02*
X110317714Y-130754285D01*
X110317714Y-130754285D02*
X110365333Y-130706666D01*
X110365333Y-130706666D02*
X110412952Y-130611428D01*
X110412952Y-130611428D02*
X110412952Y-130420952D01*
X110412952Y-130420952D02*
X110460571Y-130325714D01*
X110460571Y-130325714D02*
X110508190Y-130278095D01*
X110508190Y-130278095D02*
X110603428Y-130230476D01*
X110603428Y-130230476D02*
X110793904Y-130230476D01*
X110793904Y-130230476D02*
X110889142Y-130278095D01*
X110889142Y-130278095D02*
X110936761Y-130325714D01*
X110936761Y-130325714D02*
X110984380Y-130420952D01*
X110984380Y-130420952D02*
X110984380Y-130611428D01*
X110984380Y-130611428D02*
X110936761Y-130706666D01*
X110936761Y-130706666D02*
X110889142Y-130754285D01*
X110889142Y-130754285D02*
X110793904Y-130801904D01*
X110793904Y-130801904D02*
X110603428Y-130801904D01*
X110603428Y-130801904D02*
X110508190Y-130754285D01*
X110508190Y-130754285D02*
X110460571Y-130706666D01*
X110460571Y-130706666D02*
X110412952Y-130611428D01*
%TO.C,C13*%
X114191142Y-128897142D02*
X114238761Y-128849523D01*
X114238761Y-128849523D02*
X114286380Y-128706666D01*
X114286380Y-128706666D02*
X114286380Y-128611428D01*
X114286380Y-128611428D02*
X114238761Y-128468571D01*
X114238761Y-128468571D02*
X114143523Y-128373333D01*
X114143523Y-128373333D02*
X114048285Y-128325714D01*
X114048285Y-128325714D02*
X113857809Y-128278095D01*
X113857809Y-128278095D02*
X113714952Y-128278095D01*
X113714952Y-128278095D02*
X113524476Y-128325714D01*
X113524476Y-128325714D02*
X113429238Y-128373333D01*
X113429238Y-128373333D02*
X113334000Y-128468571D01*
X113334000Y-128468571D02*
X113286380Y-128611428D01*
X113286380Y-128611428D02*
X113286380Y-128706666D01*
X113286380Y-128706666D02*
X113334000Y-128849523D01*
X113334000Y-128849523D02*
X113381619Y-128897142D01*
X114286380Y-129849523D02*
X114286380Y-129278095D01*
X114286380Y-129563809D02*
X113286380Y-129563809D01*
X113286380Y-129563809D02*
X113429238Y-129468571D01*
X113429238Y-129468571D02*
X113524476Y-129373333D01*
X113524476Y-129373333D02*
X113572095Y-129278095D01*
X113286380Y-130182857D02*
X113286380Y-130801904D01*
X113286380Y-130801904D02*
X113667333Y-130468571D01*
X113667333Y-130468571D02*
X113667333Y-130611428D01*
X113667333Y-130611428D02*
X113714952Y-130706666D01*
X113714952Y-130706666D02*
X113762571Y-130754285D01*
X113762571Y-130754285D02*
X113857809Y-130801904D01*
X113857809Y-130801904D02*
X114095904Y-130801904D01*
X114095904Y-130801904D02*
X114191142Y-130754285D01*
X114191142Y-130754285D02*
X114238761Y-130706666D01*
X114238761Y-130706666D02*
X114286380Y-130611428D01*
X114286380Y-130611428D02*
X114286380Y-130325714D01*
X114286380Y-130325714D02*
X114238761Y-130230476D01*
X114238761Y-130230476D02*
X114191142Y-130182857D01*
%TO.C,C12*%
X117620142Y-128897142D02*
X117667761Y-128849523D01*
X117667761Y-128849523D02*
X117715380Y-128706666D01*
X117715380Y-128706666D02*
X117715380Y-128611428D01*
X117715380Y-128611428D02*
X117667761Y-128468571D01*
X117667761Y-128468571D02*
X117572523Y-128373333D01*
X117572523Y-128373333D02*
X117477285Y-128325714D01*
X117477285Y-128325714D02*
X117286809Y-128278095D01*
X117286809Y-128278095D02*
X117143952Y-128278095D01*
X117143952Y-128278095D02*
X116953476Y-128325714D01*
X116953476Y-128325714D02*
X116858238Y-128373333D01*
X116858238Y-128373333D02*
X116763000Y-128468571D01*
X116763000Y-128468571D02*
X116715380Y-128611428D01*
X116715380Y-128611428D02*
X116715380Y-128706666D01*
X116715380Y-128706666D02*
X116763000Y-128849523D01*
X116763000Y-128849523D02*
X116810619Y-128897142D01*
X117715380Y-129849523D02*
X117715380Y-129278095D01*
X117715380Y-129563809D02*
X116715380Y-129563809D01*
X116715380Y-129563809D02*
X116858238Y-129468571D01*
X116858238Y-129468571D02*
X116953476Y-129373333D01*
X116953476Y-129373333D02*
X117001095Y-129278095D01*
X116810619Y-130230476D02*
X116763000Y-130278095D01*
X116763000Y-130278095D02*
X116715380Y-130373333D01*
X116715380Y-130373333D02*
X116715380Y-130611428D01*
X116715380Y-130611428D02*
X116763000Y-130706666D01*
X116763000Y-130706666D02*
X116810619Y-130754285D01*
X116810619Y-130754285D02*
X116905857Y-130801904D01*
X116905857Y-130801904D02*
X117001095Y-130801904D01*
X117001095Y-130801904D02*
X117143952Y-130754285D01*
X117143952Y-130754285D02*
X117715380Y-130182857D01*
X117715380Y-130182857D02*
X117715380Y-130801904D01*
%TO.C,C11*%
X121303142Y-129024142D02*
X121350761Y-128976523D01*
X121350761Y-128976523D02*
X121398380Y-128833666D01*
X121398380Y-128833666D02*
X121398380Y-128738428D01*
X121398380Y-128738428D02*
X121350761Y-128595571D01*
X121350761Y-128595571D02*
X121255523Y-128500333D01*
X121255523Y-128500333D02*
X121160285Y-128452714D01*
X121160285Y-128452714D02*
X120969809Y-128405095D01*
X120969809Y-128405095D02*
X120826952Y-128405095D01*
X120826952Y-128405095D02*
X120636476Y-128452714D01*
X120636476Y-128452714D02*
X120541238Y-128500333D01*
X120541238Y-128500333D02*
X120446000Y-128595571D01*
X120446000Y-128595571D02*
X120398380Y-128738428D01*
X120398380Y-128738428D02*
X120398380Y-128833666D01*
X120398380Y-128833666D02*
X120446000Y-128976523D01*
X120446000Y-128976523D02*
X120493619Y-129024142D01*
X121398380Y-129976523D02*
X121398380Y-129405095D01*
X121398380Y-129690809D02*
X120398380Y-129690809D01*
X120398380Y-129690809D02*
X120541238Y-129595571D01*
X120541238Y-129595571D02*
X120636476Y-129500333D01*
X120636476Y-129500333D02*
X120684095Y-129405095D01*
X121398380Y-130928904D02*
X121398380Y-130357476D01*
X121398380Y-130643190D02*
X120398380Y-130643190D01*
X120398380Y-130643190D02*
X120541238Y-130547952D01*
X120541238Y-130547952D02*
X120636476Y-130452714D01*
X120636476Y-130452714D02*
X120684095Y-130357476D01*
%TO.C,C10*%
X104158142Y-129024142D02*
X104205761Y-128976523D01*
X104205761Y-128976523D02*
X104253380Y-128833666D01*
X104253380Y-128833666D02*
X104253380Y-128738428D01*
X104253380Y-128738428D02*
X104205761Y-128595571D01*
X104205761Y-128595571D02*
X104110523Y-128500333D01*
X104110523Y-128500333D02*
X104015285Y-128452714D01*
X104015285Y-128452714D02*
X103824809Y-128405095D01*
X103824809Y-128405095D02*
X103681952Y-128405095D01*
X103681952Y-128405095D02*
X103491476Y-128452714D01*
X103491476Y-128452714D02*
X103396238Y-128500333D01*
X103396238Y-128500333D02*
X103301000Y-128595571D01*
X103301000Y-128595571D02*
X103253380Y-128738428D01*
X103253380Y-128738428D02*
X103253380Y-128833666D01*
X103253380Y-128833666D02*
X103301000Y-128976523D01*
X103301000Y-128976523D02*
X103348619Y-129024142D01*
X104253380Y-129976523D02*
X104253380Y-129405095D01*
X104253380Y-129690809D02*
X103253380Y-129690809D01*
X103253380Y-129690809D02*
X103396238Y-129595571D01*
X103396238Y-129595571D02*
X103491476Y-129500333D01*
X103491476Y-129500333D02*
X103539095Y-129405095D01*
X103253380Y-130595571D02*
X103253380Y-130690809D01*
X103253380Y-130690809D02*
X103301000Y-130786047D01*
X103301000Y-130786047D02*
X103348619Y-130833666D01*
X103348619Y-130833666D02*
X103443857Y-130881285D01*
X103443857Y-130881285D02*
X103634333Y-130928904D01*
X103634333Y-130928904D02*
X103872428Y-130928904D01*
X103872428Y-130928904D02*
X104062904Y-130881285D01*
X104062904Y-130881285D02*
X104158142Y-130833666D01*
X104158142Y-130833666D02*
X104205761Y-130786047D01*
X104205761Y-130786047D02*
X104253380Y-130690809D01*
X104253380Y-130690809D02*
X104253380Y-130595571D01*
X104253380Y-130595571D02*
X104205761Y-130500333D01*
X104205761Y-130500333D02*
X104158142Y-130452714D01*
X104158142Y-130452714D02*
X104062904Y-130405095D01*
X104062904Y-130405095D02*
X103872428Y-130357476D01*
X103872428Y-130357476D02*
X103634333Y-130357476D01*
X103634333Y-130357476D02*
X103443857Y-130405095D01*
X103443857Y-130405095D02*
X103348619Y-130452714D01*
X103348619Y-130452714D02*
X103301000Y-130500333D01*
X103301000Y-130500333D02*
X103253380Y-130595571D01*
%TO.C,C9*%
X107079142Y-129881333D02*
X107126761Y-129833714D01*
X107126761Y-129833714D02*
X107174380Y-129690857D01*
X107174380Y-129690857D02*
X107174380Y-129595619D01*
X107174380Y-129595619D02*
X107126761Y-129452762D01*
X107126761Y-129452762D02*
X107031523Y-129357524D01*
X107031523Y-129357524D02*
X106936285Y-129309905D01*
X106936285Y-129309905D02*
X106745809Y-129262286D01*
X106745809Y-129262286D02*
X106602952Y-129262286D01*
X106602952Y-129262286D02*
X106412476Y-129309905D01*
X106412476Y-129309905D02*
X106317238Y-129357524D01*
X106317238Y-129357524D02*
X106222000Y-129452762D01*
X106222000Y-129452762D02*
X106174380Y-129595619D01*
X106174380Y-129595619D02*
X106174380Y-129690857D01*
X106174380Y-129690857D02*
X106222000Y-129833714D01*
X106222000Y-129833714D02*
X106269619Y-129881333D01*
X107174380Y-130357524D02*
X107174380Y-130548000D01*
X107174380Y-130548000D02*
X107126761Y-130643238D01*
X107126761Y-130643238D02*
X107079142Y-130690857D01*
X107079142Y-130690857D02*
X106936285Y-130786095D01*
X106936285Y-130786095D02*
X106745809Y-130833714D01*
X106745809Y-130833714D02*
X106364857Y-130833714D01*
X106364857Y-130833714D02*
X106269619Y-130786095D01*
X106269619Y-130786095D02*
X106222000Y-130738476D01*
X106222000Y-130738476D02*
X106174380Y-130643238D01*
X106174380Y-130643238D02*
X106174380Y-130452762D01*
X106174380Y-130452762D02*
X106222000Y-130357524D01*
X106222000Y-130357524D02*
X106269619Y-130309905D01*
X106269619Y-130309905D02*
X106364857Y-130262286D01*
X106364857Y-130262286D02*
X106602952Y-130262286D01*
X106602952Y-130262286D02*
X106698190Y-130309905D01*
X106698190Y-130309905D02*
X106745809Y-130357524D01*
X106745809Y-130357524D02*
X106793428Y-130452762D01*
X106793428Y-130452762D02*
X106793428Y-130643238D01*
X106793428Y-130643238D02*
X106745809Y-130738476D01*
X106745809Y-130738476D02*
X106698190Y-130786095D01*
X106698190Y-130786095D02*
X106602952Y-130833714D01*
%TO.C,C8*%
X176061666Y-84473142D02*
X176109285Y-84520761D01*
X176109285Y-84520761D02*
X176252142Y-84568380D01*
X176252142Y-84568380D02*
X176347380Y-84568380D01*
X176347380Y-84568380D02*
X176490237Y-84520761D01*
X176490237Y-84520761D02*
X176585475Y-84425523D01*
X176585475Y-84425523D02*
X176633094Y-84330285D01*
X176633094Y-84330285D02*
X176680713Y-84139809D01*
X176680713Y-84139809D02*
X176680713Y-83996952D01*
X176680713Y-83996952D02*
X176633094Y-83806476D01*
X176633094Y-83806476D02*
X176585475Y-83711238D01*
X176585475Y-83711238D02*
X176490237Y-83616000D01*
X176490237Y-83616000D02*
X176347380Y-83568380D01*
X176347380Y-83568380D02*
X176252142Y-83568380D01*
X176252142Y-83568380D02*
X176109285Y-83616000D01*
X176109285Y-83616000D02*
X176061666Y-83663619D01*
X175490237Y-83996952D02*
X175585475Y-83949333D01*
X175585475Y-83949333D02*
X175633094Y-83901714D01*
X175633094Y-83901714D02*
X175680713Y-83806476D01*
X175680713Y-83806476D02*
X175680713Y-83758857D01*
X175680713Y-83758857D02*
X175633094Y-83663619D01*
X175633094Y-83663619D02*
X175585475Y-83616000D01*
X175585475Y-83616000D02*
X175490237Y-83568380D01*
X175490237Y-83568380D02*
X175299761Y-83568380D01*
X175299761Y-83568380D02*
X175204523Y-83616000D01*
X175204523Y-83616000D02*
X175156904Y-83663619D01*
X175156904Y-83663619D02*
X175109285Y-83758857D01*
X175109285Y-83758857D02*
X175109285Y-83806476D01*
X175109285Y-83806476D02*
X175156904Y-83901714D01*
X175156904Y-83901714D02*
X175204523Y-83949333D01*
X175204523Y-83949333D02*
X175299761Y-83996952D01*
X175299761Y-83996952D02*
X175490237Y-83996952D01*
X175490237Y-83996952D02*
X175585475Y-84044571D01*
X175585475Y-84044571D02*
X175633094Y-84092190D01*
X175633094Y-84092190D02*
X175680713Y-84187428D01*
X175680713Y-84187428D02*
X175680713Y-84377904D01*
X175680713Y-84377904D02*
X175633094Y-84473142D01*
X175633094Y-84473142D02*
X175585475Y-84520761D01*
X175585475Y-84520761D02*
X175490237Y-84568380D01*
X175490237Y-84568380D02*
X175299761Y-84568380D01*
X175299761Y-84568380D02*
X175204523Y-84520761D01*
X175204523Y-84520761D02*
X175156904Y-84473142D01*
X175156904Y-84473142D02*
X175109285Y-84377904D01*
X175109285Y-84377904D02*
X175109285Y-84187428D01*
X175109285Y-84187428D02*
X175156904Y-84092190D01*
X175156904Y-84092190D02*
X175204523Y-84044571D01*
X175204523Y-84044571D02*
X175299761Y-83996952D01*
%TO.C,C7*%
X176100166Y-108095142D02*
X176147785Y-108142761D01*
X176147785Y-108142761D02*
X176290642Y-108190380D01*
X176290642Y-108190380D02*
X176385880Y-108190380D01*
X176385880Y-108190380D02*
X176528737Y-108142761D01*
X176528737Y-108142761D02*
X176623975Y-108047523D01*
X176623975Y-108047523D02*
X176671594Y-107952285D01*
X176671594Y-107952285D02*
X176719213Y-107761809D01*
X176719213Y-107761809D02*
X176719213Y-107618952D01*
X176719213Y-107618952D02*
X176671594Y-107428476D01*
X176671594Y-107428476D02*
X176623975Y-107333238D01*
X176623975Y-107333238D02*
X176528737Y-107238000D01*
X176528737Y-107238000D02*
X176385880Y-107190380D01*
X176385880Y-107190380D02*
X176290642Y-107190380D01*
X176290642Y-107190380D02*
X176147785Y-107238000D01*
X176147785Y-107238000D02*
X176100166Y-107285619D01*
X175766832Y-107190380D02*
X175100166Y-107190380D01*
X175100166Y-107190380D02*
X175528737Y-108190380D01*
%TO.C,C6*%
X176100166Y-132098142D02*
X176147785Y-132145761D01*
X176147785Y-132145761D02*
X176290642Y-132193380D01*
X176290642Y-132193380D02*
X176385880Y-132193380D01*
X176385880Y-132193380D02*
X176528737Y-132145761D01*
X176528737Y-132145761D02*
X176623975Y-132050523D01*
X176623975Y-132050523D02*
X176671594Y-131955285D01*
X176671594Y-131955285D02*
X176719213Y-131764809D01*
X176719213Y-131764809D02*
X176719213Y-131621952D01*
X176719213Y-131621952D02*
X176671594Y-131431476D01*
X176671594Y-131431476D02*
X176623975Y-131336238D01*
X176623975Y-131336238D02*
X176528737Y-131241000D01*
X176528737Y-131241000D02*
X176385880Y-131193380D01*
X176385880Y-131193380D02*
X176290642Y-131193380D01*
X176290642Y-131193380D02*
X176147785Y-131241000D01*
X176147785Y-131241000D02*
X176100166Y-131288619D01*
X175243023Y-131193380D02*
X175433499Y-131193380D01*
X175433499Y-131193380D02*
X175528737Y-131241000D01*
X175528737Y-131241000D02*
X175576356Y-131288619D01*
X175576356Y-131288619D02*
X175671594Y-131431476D01*
X175671594Y-131431476D02*
X175719213Y-131621952D01*
X175719213Y-131621952D02*
X175719213Y-132002904D01*
X175719213Y-132002904D02*
X175671594Y-132098142D01*
X175671594Y-132098142D02*
X175623975Y-132145761D01*
X175623975Y-132145761D02*
X175528737Y-132193380D01*
X175528737Y-132193380D02*
X175338261Y-132193380D01*
X175338261Y-132193380D02*
X175243023Y-132145761D01*
X175243023Y-132145761D02*
X175195404Y-132098142D01*
X175195404Y-132098142D02*
X175147785Y-132002904D01*
X175147785Y-132002904D02*
X175147785Y-131764809D01*
X175147785Y-131764809D02*
X175195404Y-131669571D01*
X175195404Y-131669571D02*
X175243023Y-131621952D01*
X175243023Y-131621952D02*
X175338261Y-131574333D01*
X175338261Y-131574333D02*
X175528737Y-131574333D01*
X175528737Y-131574333D02*
X175623975Y-131621952D01*
X175623975Y-131621952D02*
X175671594Y-131669571D01*
X175671594Y-131669571D02*
X175719213Y-131764809D01*
D11*
%TO.C,C18*%
X111850000Y-134226752D02*
X111850000Y-132804248D01*
X109130000Y-134226752D02*
X109130000Y-132804248D01*
%TO.C,C13*%
X115152000Y-134226752D02*
X115152000Y-132804248D01*
X112432000Y-134226752D02*
X112432000Y-132804248D01*
%TO.C,C12*%
X115734000Y-134226752D02*
X115734000Y-132804248D01*
X118454000Y-134226752D02*
X118454000Y-132804248D01*
%TO.C,C11*%
X121756000Y-134226752D02*
X121756000Y-132804248D01*
X119036000Y-134226752D02*
X119036000Y-132804248D01*
%TO.C,C10*%
X105246000Y-134226752D02*
X105246000Y-132804248D01*
X102526000Y-134226752D02*
X102526000Y-132804248D01*
%TO.C,C9*%
X108548000Y-134226752D02*
X108548000Y-132804248D01*
X105828000Y-134226752D02*
X105828000Y-132804248D01*
%TO.C,C8*%
X175183748Y-83148000D02*
X176606252Y-83148000D01*
X175183748Y-80428000D02*
X176606252Y-80428000D01*
%TO.C,C7*%
X175222248Y-106770000D02*
X176644752Y-106770000D01*
X175222248Y-104050000D02*
X176644752Y-104050000D01*
%TO.C,C6*%
X175222248Y-130773000D02*
X176644752Y-130773000D01*
X175222248Y-128053000D02*
X176644752Y-128053000D01*
%TD*%
M02*
