M48
; DRILL file {KiCad (7.0.0)} date Sat May 27 01:43:58 2023
; FORMAT={-:-/ absolute / metric / decimal}
; #@! TF.CreationDate,2023-05-27T01:43:58+02:00
; #@! TF.GenerationSoftware,Kicad,Pcbnew,(7.0.0)
; #@! TF.FileFunction,Plated,1,4,PTH
FMAT,2
METRIC
; #@! TA.AperFunction,Plated,PTH,ComponentDrill
T1C0.600
; #@! TA.AperFunction,Plated,PTH,ComponentDrill
T2C0.800
; #@! TA.AperFunction,Plated,PTH,ComponentDrill
T3C1.000
; #@! TA.AperFunction,Plated,PTH,ComponentDrill
T4C1.100
; #@! TA.AperFunction,Plated,PTH,ComponentDrill
T5C1.300
; #@! TA.AperFunction,Plated,PTH,ComponentDrill
T6C4.300
%
G90
G05
T1
X97.563Y-121.539
X98.508Y-119.259
X98.508Y-123.819
X100.788Y-118.314
X100.788Y-124.764
X103.068Y-119.259
X103.068Y-123.819
X104.013Y-121.539
X115.343Y-62.357
X116.288Y-60.077
X116.288Y-64.637
X118.568Y-59.132
X118.568Y-65.582
X120.848Y-60.077
X120.848Y-64.637
X121.793Y-62.357
X146.895Y-116.719
X147.839Y-114.438
X147.839Y-118.999
X150.12Y-113.494
X150.12Y-119.944
X152.4Y-114.438
X152.4Y-118.999
X153.345Y-116.719
X171.781Y-51.308
X172.726Y-49.028
X172.726Y-53.588
X175.006Y-48.083
X175.006Y-54.533
X177.286Y-49.028
X177.286Y-53.588
X178.231Y-51.308
T2
X98.806Y-59.055
X98.806Y-66.675
X100.711Y-128.603
X100.711Y-131.103
X101.854Y-59.055
X101.854Y-66.675
X104.902Y-59.055
X104.902Y-66.675
X108.204Y-83.439
X108.204Y-86.487
X108.204Y-89.535
X108.204Y-92.583
X108.204Y-95.631
X108.204Y-98.679
X108.204Y-101.727
X108.204Y-104.775
X108.204Y-108.458
X108.204Y-111.506
X108.204Y-114.554
X108.204Y-117.602
X108.204Y-120.65
X108.204Y-123.698
X108.204Y-126.746
X108.204Y-129.794
X114.681Y-69.469
X114.681Y-72.644
X115.824Y-83.439
X115.824Y-86.487
X115.824Y-89.535
X115.824Y-92.583
X115.824Y-95.631
X115.824Y-98.679
X115.824Y-101.727
X115.824Y-104.775
X115.824Y-108.458
X115.824Y-111.506
X115.824Y-114.554
X115.824Y-117.602
X115.824Y-120.65
X115.824Y-123.698
X115.824Y-126.746
X115.824Y-129.794
X118.11Y-47.197
X118.11Y-52.197
X119.126Y-85.471
X119.126Y-88.011
X119.126Y-90.551
X119.126Y-93.091
X119.126Y-95.631
X119.126Y-98.171
X119.126Y-100.711
X119.126Y-103.251
X119.126Y-105.791
X119.126Y-109.22
X119.126Y-111.76
X119.126Y-114.3
X119.126Y-116.84
X119.126Y-119.38
X119.126Y-121.92
X119.126Y-124.46
X119.126Y-127.0
X119.126Y-129.54
X122.301Y-69.469
X122.301Y-72.644
X123.19Y-95.758
X123.19Y-100.758
X125.095Y-46.99
X125.095Y-49.53
X125.095Y-52.07
X125.095Y-54.61
X125.095Y-57.15
X125.095Y-59.69
X125.095Y-62.23
X125.095Y-64.77
X125.095Y-67.31
X125.095Y-69.85
X125.095Y-72.39
X125.095Y-74.93
X125.095Y-77.47
X125.095Y-80.01
X125.095Y-82.55
X125.095Y-85.09
X125.095Y-87.63
X125.095Y-90.17
X125.095Y-92.71
X130.302Y-96.52
X130.302Y-99.06
X130.302Y-101.6
X130.302Y-104.14
X130.302Y-106.68
X130.302Y-109.22
X130.302Y-111.76
X130.302Y-114.3
X130.302Y-116.84
X130.302Y-119.38
X130.302Y-121.92
X130.302Y-124.46
X130.302Y-127.0
X130.302Y-129.54
X137.922Y-96.52
X137.922Y-99.06
X137.922Y-101.6
X137.922Y-104.14
X137.922Y-106.68
X137.922Y-109.22
X137.922Y-111.76
X137.922Y-114.3
X137.922Y-116.84
X137.922Y-119.38
X137.922Y-121.92
X137.922Y-124.46
X137.922Y-127.0
X137.922Y-129.54
X145.796Y-106.68
X145.796Y-109.18
X150.491Y-90.167
X150.491Y-92.707
X150.495Y-46.99
X150.495Y-49.53
X150.495Y-52.07
X150.495Y-54.61
X150.495Y-57.15
X150.495Y-59.69
X150.495Y-62.23
X150.495Y-64.77
X150.495Y-67.31
X150.495Y-69.85
X150.495Y-72.39
X150.495Y-74.93
X150.495Y-77.47
X150.495Y-80.01
X150.495Y-82.55
X150.495Y-85.09
X150.495Y-87.63
X154.853Y-100.33
X154.98Y-76.708
X155.107Y-124.333
X157.353Y-100.33
X157.48Y-76.708
X157.607Y-124.333
X158.369Y-51.689
X158.369Y-54.737
X161.29Y-58.928
X161.29Y-61.468
X161.29Y-64.008
X161.29Y-66.548
X161.29Y-69.088
X161.29Y-71.628
X161.29Y-74.168
X161.29Y-76.708
X161.417Y-82.614
X161.417Y-85.154
X161.417Y-87.694
X161.417Y-90.234
X161.417Y-92.774
X161.417Y-95.314
X161.417Y-97.854
X161.417Y-100.394
X161.417Y-106.68
X161.417Y-109.22
X161.417Y-111.76
X161.417Y-114.3
X161.417Y-116.84
X161.417Y-119.38
X161.417Y-121.92
X161.417Y-124.46
X165.989Y-51.689
X165.989Y-54.737
X168.91Y-58.928
X168.91Y-61.468
X168.91Y-64.008
X168.91Y-66.548
X168.91Y-69.088
X168.91Y-71.628
X168.91Y-74.168
X168.91Y-76.708
X169.037Y-82.614
X169.037Y-85.154
X169.037Y-87.694
X169.037Y-90.234
X169.037Y-92.774
X169.037Y-95.314
X169.037Y-97.854
X169.037Y-100.394
X169.037Y-106.68
X169.037Y-109.22
X169.037Y-111.76
X169.037Y-114.3
X169.037Y-116.84
X169.037Y-119.38
X169.037Y-121.92
X169.037Y-124.46
X172.085Y-61.468
X172.085Y-64.008
X172.085Y-66.548
X172.085Y-69.088
X172.085Y-71.628
X172.085Y-74.168
X172.085Y-76.708
X172.085Y-79.248
X172.085Y-81.788
X172.159Y-109.22
X172.159Y-111.76
X172.159Y-114.3
X172.159Y-116.84
X172.159Y-119.38
X172.159Y-121.92
X172.159Y-124.46
X172.159Y-127.0
X172.159Y-129.54
X172.212Y-85.217
X172.212Y-87.757
X172.212Y-90.297
X172.212Y-92.837
X172.212Y-95.377
X172.212Y-97.917
X172.212Y-100.457
X172.212Y-102.997
X172.212Y-105.537
X179.705Y-61.468
X179.705Y-64.008
X179.705Y-66.548
X179.705Y-69.088
X179.705Y-71.628
X179.705Y-74.168
X179.705Y-76.708
X179.705Y-79.248
X179.705Y-81.788
X179.779Y-109.22
X179.779Y-111.76
X179.779Y-114.3
X179.779Y-116.84
X179.779Y-119.38
X179.779Y-121.92
X179.779Y-124.46
X179.779Y-127.0
X179.779Y-129.54
X179.832Y-85.217
X179.832Y-87.757
X179.832Y-90.297
X179.832Y-92.837
X179.832Y-95.377
X179.832Y-97.917
X179.832Y-100.457
X179.832Y-102.997
X179.832Y-105.537
T3
X121.412Y-76.073
X121.412Y-78.613
X121.412Y-81.153
X126.746Y-104.14
X126.746Y-106.68
X126.746Y-109.22
X156.21Y-82.169
X156.21Y-84.709
X156.21Y-87.249
X156.21Y-89.789
X156.21Y-92.329
X156.21Y-94.869
T4
X155.702Y-49.149
X155.702Y-51.689
X155.702Y-54.229
T5
X97.409Y-51.689
X100.457Y-78.359
X100.457Y-83.439
X100.457Y-88.519
X100.457Y-93.599
X100.457Y-98.679
X100.457Y-103.759
X100.457Y-108.839
X100.457Y-113.919
X100.838Y-136.525
X100.838Y-141.605
X102.489Y-51.689
X107.569Y-51.689
X109.728Y-138.938
X112.649Y-51.689
X114.808Y-138.938
X119.888Y-138.938
X124.968Y-138.938
X130.048Y-138.938
X135.128Y-138.938
X140.208Y-138.938
X145.288Y-138.938
X155.067Y-139.065
X160.147Y-139.065
X165.227Y-139.065
X170.307Y-139.065
X175.387Y-139.065
X180.467Y-139.065
X185.547Y-139.065
X187.706Y-49.149
X187.706Y-54.229
X187.706Y-59.309
X187.706Y-64.389
X187.706Y-69.469
X187.706Y-74.549
X187.706Y-79.629
X187.706Y-84.709
X187.706Y-90.932
X187.706Y-96.012
X187.706Y-101.092
X187.706Y-106.172
X187.706Y-111.252
X187.706Y-116.332
X187.706Y-121.412
X187.706Y-126.492
X190.627Y-139.065
T6
X100.788Y-121.539
X118.568Y-62.357
X150.12Y-116.719
X175.006Y-51.308
T0
M30
